<svg width="42" height="79" viewBox="0 0 42 79" fill="none" xmlns="http://www.w3.org/2000/svg">
<path fill-rule="evenodd" clip-rule="evenodd" d="M23.4437 31.1987C27.0615 28.1319 34.9216 23.0521 37.8012 29.7462C39.6329 34.006 38.5043 40.514 34.5375 43.2716C29.5656 46.7274 24.6447 42.035 22.2343 37.8714C21.54 36.673 20.9414 35.4127 20.4122 34.1141C21.3666 33.0863 22.3727 32.1067 23.4437 31.1987ZM15.1992 0.173634C13.1605 10.6927 13.4196 22.5418 16.9518 32.8982C15.3687 34.7917 14.0123 36.7052 12.9581 38.3797C6.83448 48.1082 3.2444 61.0193 3.78243 72.5373C3.84165 73.796 5.31101 74.2054 6.19864 73.6719C5.74068 74.0255 5.27821 74.3736 4.81125 74.7161C3.96721 73.4627 3.34673 72.1168 2.92563 70.6039C2.66862 69.6793 2.66152 68.6247 2.33821 67.7361C2.14577 67.2068 1.74441 67.2202 1.61323 66.6149C1.57142 66.4218 1.29589 66.326 1.2013 66.543C0.942797 67.1375 0.43004 67.3297 0.196429 67.9351C-0.171985 68.8886 0.0621652 70.6523 0.219037 71.6128C0.609704 74.0047 1.63421 76.2084 3.02478 78.1758C3.60585 78.9974 4.66693 79.0673 5.47939 78.5812C7.47128 77.39 9.29431 75.916 10.9976 74.345C12.4729 72.9836 14.237 71.5323 15.0084 69.6473C15.614 68.1697 14.0005 66.8298 12.6576 67.6968C11.0188 68.7544 9.85246 70.5076 8.41258 71.8293C7.79533 72.396 7.15175 72.9221 6.49833 73.4351C6.67852 73.24 6.80675 72.9853 6.84804 72.6658C8.18122 62.3415 9.17064 52.4936 14.1151 43.0955C15.3286 40.7867 16.746 38.5724 18.361 36.5161C18.4563 36.7354 18.5429 36.9608 18.6416 37.1798C21.8991 44.3721 30.6308 52.0382 37.9136 44.5997C43.0835 39.3207 44.2021 25.5018 35.1473 23.396C29.3619 22.0504 23.6167 25.8341 19.1292 30.4767C18.1447 27.2399 17.4789 23.8786 16.8792 20.6644C15.628 13.9642 15.3321 7.05131 15.6262 0.250041C15.6376 -0.0196439 15.2539 -0.109351 15.1992 0.173634Z" fill="black"/>
</svg>
